<svg width="973" height="772" viewBox="0 0 973 772" fill="none" xmlns="http://www.w3.org/2000/svg">
<path d="M0 142.869V351.464C0 466.467 93.2911 560.06 208.605 560.06C323.613 560.06 417.21 466.773 417.21 351.464V142.869H0Z" fill="#27AAE1"/>
<path d="M138.254 142.869V351.464C138.254 389.697 169.148 420.894 207.688 420.894C245.922 420.894 277.121 390.002 277.121 351.464V142.869H138.254Z" fill="#292984"/>
<path d="M276.815 142.869V351.77C276.815 467.079 370.412 560.671 486.032 560.671C601.652 560.671 695.249 467.079 695.249 351.77V142.869H276.815Z" fill="#00AAA6"/>
<path d="M416.904 142.869V352.382C416.904 390.614 447.797 421.812 486.337 421.812C524.571 421.812 555.77 390.92 555.77 352.382V142.869H416.904Z" fill="#8DC63F"/>
<path d="M555.159 144.093V352.688C555.159 467.691 648.45 561.283 763.764 561.283C878.772 561.283 972.369 467.996 972.369 352.688V144.093H555.159Z" fill="#009444"/>
<path d="M693.719 142.869V352.688C693.719 390.92 724.612 422.118 763.152 422.118C801.386 422.118 832.585 391.226 832.585 352.688V142.869H693.719Z" fill="#D7DF23"/>
<path d="M276.815 354.217V562.813C276.815 600.739 246.228 631.631 208.299 632.242V771.408C323.307 771.408 416.599 678.121 416.599 562.813V354.217H276.815Z" fill="#1C75BC"/>
<path d="M553.935 351.464V352.076C553.935 390.308 523.042 421.2 484.808 421.506V560.671C485.114 560.671 485.114 560.671 485.42 560.671C600.428 560.671 694.025 467.385 694.025 352.076V351.464H553.935Z" fill="#00AAA6"/>
<path d="M201.876 718.8C199.429 718.8 197.288 716.659 197.288 714.212C197.288 711.765 199.429 709.624 201.876 709.624H203.406C205.853 709.624 207.994 711.765 207.994 714.212C207.994 716.659 205.853 718.8 203.406 718.8H201.876Z" fill="#FFCB1F"/>
<path d="M221.758 717.576C219.617 717.576 217.475 716.047 217.17 713.6C216.864 711.153 218.699 708.707 221.146 708.401C222.064 708.401 222.981 708.095 224.205 708.095C226.652 707.789 229.099 709.318 229.404 711.765C229.71 714.212 228.181 716.659 225.734 716.965C224.816 717.271 223.593 717.271 222.675 717.576C222.064 717.576 222.064 717.576 221.758 717.576ZM242.557 712.989C240.722 712.989 238.887 711.765 238.275 709.624C237.663 707.177 238.887 704.73 241.334 703.813C242.251 703.507 243.169 703.201 244.086 702.895C246.533 701.978 248.98 703.507 249.898 705.954C250.816 708.401 249.286 710.847 246.839 711.765C245.922 712.071 244.698 712.377 243.78 712.683C243.475 712.989 243.169 712.989 242.557 712.989ZM262.745 705.342C260.909 705.342 259.38 704.424 258.462 702.589C257.239 700.448 258.462 697.696 260.603 696.472C261.521 696.166 262.439 695.555 263.356 695.249C265.497 694.025 268.25 694.943 269.474 697.39C270.697 699.531 269.78 702.284 267.333 703.507C266.415 704.119 265.497 704.424 264.58 705.036C263.968 705.036 263.356 705.342 262.745 705.342ZM281.097 694.637C279.568 694.637 278.344 694.025 277.426 692.496C275.897 690.355 276.509 687.602 278.65 686.073C279.568 685.461 280.179 684.85 281.097 684.238C283.238 682.708 285.991 683.32 287.52 685.461C289.05 687.602 288.438 690.355 286.297 691.884C285.379 692.496 284.462 693.108 283.85 693.719C282.932 694.331 282.015 694.637 281.097 694.637ZM297.92 681.179C296.696 681.179 295.473 680.568 294.555 679.65C292.72 677.815 293.026 674.756 294.861 673.227C295.473 672.615 296.391 672.004 297.002 671.086C298.838 669.251 301.59 669.251 303.426 671.086C305.261 672.921 305.261 675.674 303.426 677.509C302.814 678.121 301.896 679.038 301.285 679.65C300.061 680.873 299.143 681.179 297.92 681.179ZM312.296 665.275C311.378 665.275 310.155 664.969 309.543 664.357C307.708 662.828 307.096 659.769 308.931 657.934C309.543 657.016 310.155 656.405 310.767 655.487C312.296 653.346 315.049 653.04 317.19 654.57C319.331 656.099 319.637 658.852 318.108 660.993C317.496 661.91 316.884 662.522 316.272 663.44C315.049 664.663 313.825 665.275 312.296 665.275ZM324.225 647.535C323.307 647.535 322.696 647.229 322.084 646.923C319.943 645.7 319.025 642.947 320.249 640.806C320.86 639.888 321.166 638.971 321.778 638.359C323.001 636.218 325.754 635.301 327.895 636.524C330.037 637.747 330.954 640.5 329.731 642.641C329.119 643.559 328.813 644.476 328.201 645.394C327.59 646.923 326.06 647.535 324.225 647.535ZM333.401 628.266C332.789 628.266 332.178 628.266 331.872 627.96C329.425 627.042 328.201 624.29 329.119 622.149C329.425 621.231 329.731 620.314 330.037 619.396C330.954 616.949 333.401 615.726 335.848 616.643C338.295 617.561 339.519 620.008 338.601 622.455C338.295 623.372 337.989 624.29 337.378 625.513C337.072 627.348 335.236 628.266 333.401 628.266ZM339.519 607.773C339.213 607.773 338.907 607.773 338.601 607.773C336.154 607.162 334.625 604.715 335.236 602.268C335.542 601.35 335.542 600.433 335.848 599.515C336.46 597.068 338.601 595.539 341.354 595.845C343.801 596.457 345.33 598.598 345.024 601.35C344.718 602.268 344.718 603.491 344.413 604.409C343.495 606.244 341.66 607.773 339.519 607.773ZM342.577 586.669C342.271 586.669 342.271 586.669 342.577 586.669C339.824 586.363 337.989 584.222 337.989 581.775C337.989 580.858 337.989 579.94 337.989 578.717C337.989 576.27 340.13 574.129 342.883 574.435C345.33 574.435 347.471 576.576 347.165 579.328C347.165 580.246 347.165 581.47 346.86 582.387C346.86 584.834 345.024 586.669 342.577 586.669ZM342.883 565.259C340.436 565.259 338.295 563.118 338.295 560.671V557.613C338.295 555.166 340.436 553.025 342.883 553.025C345.33 553.025 347.471 555.166 347.471 557.613V560.671C347.471 563.118 345.33 565.259 342.883 565.259ZM342.577 543.849C340.13 543.849 337.989 541.708 337.989 539.261V536.203C337.989 533.756 340.13 531.615 342.577 531.615C345.024 531.615 347.165 533.756 347.165 536.203V539.261C347.165 541.708 345.33 543.849 342.577 543.849ZM342.577 522.439C340.13 522.439 337.989 520.298 337.989 517.851V514.792C337.989 512.346 340.13 510.205 342.577 510.205C345.024 510.205 347.165 512.346 347.165 514.792V517.851C347.165 520.298 345.33 522.439 342.577 522.439ZM342.577 500.723C340.13 500.723 337.989 498.582 337.989 496.135V493.077C337.989 490.63 340.13 488.489 342.577 488.489C345.024 488.489 347.165 490.63 347.165 493.077V496.135C347.165 498.888 345.024 500.723 342.577 500.723ZM763.458 497.97C761.011 497.97 758.87 495.829 758.87 493.382C758.87 490.936 760.705 488.794 763.458 488.794C764.376 488.794 765.293 488.794 766.517 488.794C768.964 488.794 771.105 490.63 771.105 493.382C771.105 495.829 769.27 497.97 766.517 497.97C765.599 497.664 764.682 497.97 763.458 497.97ZM745.106 496.747C744.8 496.747 744.8 496.747 744.494 496.747C743.576 496.747 742.353 496.441 741.435 496.441C738.988 496.135 737.153 493.688 737.459 491.241C737.765 488.794 740.212 486.959 742.659 487.265C743.576 487.265 744.494 487.571 745.717 487.571C748.164 487.877 750 490.324 749.694 492.771C749.388 494.912 747.247 496.747 745.106 496.747ZM784.869 496.135C782.728 496.135 780.587 494.606 780.281 492.159C779.975 489.712 781.505 487.265 784.257 486.959C785.175 486.959 786.093 486.654 787.316 486.348C789.763 486.042 792.21 487.571 792.516 490.018C792.822 492.465 791.293 494.912 788.846 495.218C787.928 495.523 786.704 495.523 785.787 495.829C785.175 496.135 784.869 496.135 784.869 496.135ZM724 492.159C723.695 492.159 723.083 492.159 722.777 491.853C721.859 491.547 720.636 491.241 719.718 490.936C717.271 490.324 716.048 487.571 716.66 485.124C717.271 482.677 720.024 481.454 722.471 482.066C723.389 482.371 724.306 482.677 725.224 482.983C727.671 483.595 729.2 486.348 728.283 488.794C727.977 490.936 726.142 492.159 724 492.159ZM805.669 491.547C803.833 491.547 801.998 490.324 801.386 488.183C800.775 485.736 801.998 483.289 804.445 482.372C805.363 482.066 806.28 481.76 807.198 481.454C809.645 480.536 812.092 482.066 813.009 484.207C813.927 486.654 812.398 489.1 810.257 490.018C809.339 490.324 808.115 490.63 807.198 490.936C806.586 491.241 805.974 491.547 805.669 491.547ZM704.119 484.818C703.507 484.818 702.895 484.818 702.284 484.513C701.366 484.207 700.448 483.595 699.531 483.289C697.39 482.066 696.472 479.313 697.39 477.172C698.613 475.031 701.366 474.113 703.507 475.031C704.425 475.337 705.342 475.948 706.26 476.254C708.707 477.478 709.624 479.925 708.401 482.372C707.483 483.595 705.954 484.818 704.119 484.818ZM825.55 483.595C823.715 483.595 822.186 482.677 821.574 481.148C820.35 479.007 821.268 476.254 823.715 475.031C824.633 474.725 825.55 474.113 826.468 473.807C828.609 472.584 831.362 473.502 832.585 475.643C833.809 477.784 832.891 480.536 830.75 481.76C829.832 482.372 828.915 482.677 827.997 483.289C826.774 483.289 826.162 483.595 825.55 483.595ZM342.577 479.313C340.13 479.313 337.989 477.172 337.989 474.725V471.666C337.989 469.22 340.13 467.079 342.577 467.079C345.024 467.079 347.165 469.22 347.165 471.666V474.725C347.165 477.478 345.024 479.313 342.577 479.313ZM685.461 474.113C684.543 474.113 683.625 473.807 683.014 473.196C682.096 472.584 681.178 471.972 680.261 471.361C678.12 469.831 677.814 467.079 679.037 464.938C680.567 462.797 683.319 462.491 685.461 463.714C686.378 464.326 686.99 464.938 687.908 465.243C690.049 466.773 690.66 469.525 689.131 471.666C688.519 473.502 686.99 474.113 685.461 474.113ZM843.903 472.584C842.373 472.584 841.15 471.972 840.232 470.749C838.703 468.608 839.314 465.855 841.456 464.326C842.373 463.714 842.985 463.102 843.903 462.491C846.044 460.961 848.797 461.573 850.326 463.408C851.855 465.549 851.244 468.302 849.408 469.831C848.491 470.443 847.573 471.055 846.961 471.666C845.738 472.278 844.82 472.584 843.903 472.584ZM668.638 460.961C667.414 460.961 666.496 460.656 665.579 459.738C664.661 459.126 664.049 458.209 663.132 457.597C661.297 455.762 661.297 453.009 662.826 451.174C664.661 449.339 667.414 449.339 669.249 450.868C669.861 451.48 670.779 452.092 671.39 453.009C673.226 454.844 673.531 457.597 671.696 459.432C671.085 460.656 669.861 460.961 668.638 460.961ZM860.42 459.126C859.196 459.126 857.973 458.515 857.055 457.597C855.22 455.762 855.526 453.009 857.361 451.174C857.973 450.562 858.89 449.951 859.502 449.033C861.337 447.198 864.09 447.198 865.925 449.033C867.761 450.868 867.761 453.621 865.925 455.456C865.314 456.068 864.396 456.985 863.784 457.597C862.867 458.515 861.643 459.126 860.42 459.126ZM342.577 457.903C340.13 457.903 337.989 455.762 337.989 453.315V450.256C337.989 447.81 340.13 445.669 342.577 445.669C345.024 445.669 347.165 447.81 347.165 450.256V453.315C347.165 456.068 345.024 457.903 342.577 457.903ZM653.956 445.363C652.732 445.363 651.203 444.751 650.285 443.528C649.673 442.61 649.062 441.998 648.45 441.081C646.921 438.94 647.227 436.187 649.368 434.658C651.509 433.128 654.262 433.434 655.791 435.575C656.403 436.493 657.014 437.105 657.626 438.022C659.156 439.857 658.85 442.916 657.014 444.445C656.097 445.057 654.873 445.363 653.956 445.363ZM874.796 443.222C873.878 443.222 872.96 442.916 872.043 442.304C869.902 440.775 869.596 437.716 871.125 435.881C871.737 434.964 872.349 434.352 872.961 433.434C874.49 431.293 877.243 430.987 879.384 432.517C881.525 434.046 881.831 436.799 880.301 438.94C879.69 439.857 879.078 440.469 878.466 441.387C877.549 442.61 876.325 443.222 874.796 443.222ZM342.577 436.493C340.13 436.493 337.989 434.352 337.989 431.905V428.846C337.989 426.399 340.13 424.258 342.577 424.258C345.024 424.258 347.165 426.399 347.165 428.846V431.905C347.165 434.352 345.024 436.493 342.577 436.493ZM641.721 427.929C640.191 427.929 638.662 427.011 637.744 425.788C637.133 424.87 636.827 423.953 636.215 423.035C634.992 420.894 635.909 418.141 638.05 416.918C640.191 415.694 642.944 416.612 644.168 418.753C644.779 419.671 645.085 420.588 645.697 421.2C646.921 423.341 646.309 426.094 644.168 427.623C643.25 427.623 642.638 427.929 641.721 427.929ZM886.725 425.482C886.113 425.482 885.195 425.176 884.584 424.87C882.443 423.647 881.525 420.894 882.748 418.753C883.36 417.835 883.666 416.918 884.278 416C885.501 413.859 888.254 412.942 890.395 414.165C892.536 415.389 893.454 418.141 892.23 420.282C891.619 421.2 891.313 422.117 890.701 423.035C889.783 424.564 888.254 425.482 886.725 425.482ZM342.577 415.083C340.13 415.083 337.989 412.942 337.989 410.495V407.436C337.989 404.989 340.13 402.848 342.577 402.848C345.024 402.848 347.165 404.989 347.165 407.436V410.495C347.165 412.942 345.024 415.083 342.577 415.083ZM632.239 408.66C630.403 408.66 628.568 407.436 627.957 405.601C627.651 404.684 627.345 403.766 626.733 402.543C625.815 400.096 627.039 397.649 629.486 396.731C631.933 395.814 634.38 397.037 635.297 399.484C635.603 400.402 635.909 401.319 636.215 402.237C637.133 404.684 635.909 407.13 633.768 408.048C633.462 408.354 632.85 408.66 632.239 408.66ZM895.595 405.907C894.983 405.907 894.677 405.907 894.066 405.601C891.619 404.684 890.395 401.931 891.313 399.79C891.619 398.872 891.925 397.955 892.23 397.037C893.148 394.59 895.595 393.367 898.042 394.284C900.489 395.202 901.713 397.649 900.795 400.096C900.489 401.013 900.183 401.931 899.877 403.154C899.266 404.684 897.43 405.907 895.595 405.907ZM342.577 393.673C340.13 393.673 337.989 391.532 337.989 389.085V386.026C337.989 383.579 340.13 381.438 342.577 381.438C345.024 381.438 347.165 383.579 347.165 386.026V389.085C347.165 391.532 345.024 393.673 342.577 393.673ZM626.121 388.167C623.98 388.167 622.145 386.638 621.533 384.497C621.227 383.579 621.227 382.356 620.921 381.438C620.31 378.991 622.145 376.545 624.592 375.933C627.039 375.321 629.486 377.156 630.098 379.603C630.404 380.521 630.403 381.438 630.709 382.356C631.321 384.803 629.792 387.25 627.345 387.861C626.733 388.167 626.427 388.167 626.121 388.167ZM901.713 385.414C901.407 385.414 901.101 385.414 900.795 385.414C898.348 384.803 896.819 382.356 897.124 379.909C897.43 378.991 897.43 378.074 897.736 376.85C898.042 374.404 900.489 372.568 902.936 373.18C905.383 373.486 907.218 375.933 906.607 378.38C906.301 379.297 906.301 380.521 905.995 381.438C905.689 383.885 903.854 385.414 901.713 385.414ZM342.271 372.263C339.825 372.263 337.683 370.122 337.683 367.675V364.616C337.683 362.169 339.825 360.028 342.271 360.028C344.718 360.028 346.86 362.169 346.86 364.616V367.675C346.86 370.122 345.024 372.263 342.271 372.263ZM623.063 366.757C620.616 366.757 618.78 364.922 618.474 362.475C618.474 361.558 618.474 360.334 618.169 359.417C618.169 356.97 620.004 354.829 622.451 354.523C624.898 354.523 627.039 356.358 627.345 358.805C627.345 359.722 627.345 360.64 627.651 361.863C627.957 364.31 625.815 366.451 623.368 366.757C623.063 366.757 623.063 366.757 623.063 366.757ZM904.159 364.004C901.407 364.004 899.571 361.863 899.571 359.111C899.571 358.193 899.571 357.276 899.571 356.052C899.571 353.605 901.712 351.464 904.159 351.464C906.606 351.464 908.748 353.605 908.748 356.052C908.748 356.97 908.748 358.193 908.748 359.111C908.748 362.169 906.606 364.004 904.159 364.004ZM342.271 350.853C339.825 350.853 337.683 348.711 337.683 346.265V343.206C337.683 340.759 339.825 338.618 342.271 338.618C344.718 338.618 346.86 340.759 346.86 343.206V346.265C346.86 348.711 345.024 350.853 342.271 350.853ZM622.757 345.347C620.31 345.347 618.169 343.206 618.169 340.759V337.701C618.169 335.254 620.31 333.113 622.757 333.113C625.204 333.113 627.345 335.254 627.345 337.701V340.759C627.345 343.512 625.204 345.347 622.757 345.347ZM904.465 342.594C902.018 342.594 899.877 340.453 899.877 338.006V334.948C899.877 332.501 902.018 330.36 904.465 330.36C906.912 330.36 909.053 332.501 909.053 334.948V338.006C909.053 340.759 906.912 342.594 904.465 342.594ZM342.271 329.442C339.825 329.442 337.683 327.301 337.683 324.855V321.796C337.683 319.349 339.825 317.208 342.271 317.208C344.718 317.208 346.86 319.349 346.86 321.796V324.855C346.86 327.301 345.024 329.442 342.271 329.442ZM622.757 323.937C620.31 323.937 618.169 321.796 618.169 319.349V316.291C618.169 313.844 620.31 311.703 622.757 311.703C625.204 311.703 627.345 313.844 627.345 316.291V319.349C627.345 322.102 625.204 323.937 622.757 323.937ZM904.465 321.184C902.018 321.184 899.877 319.043 899.877 316.596V313.538C899.877 311.091 902.018 308.95 904.465 308.95C906.912 308.95 909.053 311.091 909.053 313.538V316.596C909.053 319.043 906.912 321.184 904.465 321.184ZM342.271 308.032C339.825 308.032 337.683 305.891 337.683 303.444V300.386C337.683 297.939 339.825 295.798 342.271 295.798C344.718 295.798 346.86 297.939 346.86 300.386V303.444C346.86 305.891 344.718 308.032 342.271 308.032ZM623.063 302.527C620.616 302.527 618.474 300.386 618.474 297.939V294.88C618.474 292.434 620.616 290.293 623.063 290.293C625.51 290.293 627.651 292.434 627.651 294.88V297.939C627.651 300.692 625.51 302.527 623.063 302.527ZM904.465 299.774C902.018 299.774 899.877 297.633 899.877 295.186V292.128C899.877 289.681 902.018 287.54 904.465 287.54C906.912 287.54 909.053 289.681 909.053 292.128V295.186C909.053 297.633 906.912 299.774 904.465 299.774ZM342.271 286.622C339.825 286.622 337.683 284.481 337.683 282.034V278.976C337.683 276.529 339.825 274.388 342.271 274.388C344.718 274.388 346.86 276.529 346.86 278.976V282.034C346.86 284.481 344.718 286.622 342.271 286.622ZM623.063 281.117C620.616 281.117 618.474 278.976 618.474 276.529V273.47C618.474 271.024 620.616 268.883 623.063 268.883C625.51 268.883 627.651 271.024 627.651 273.47V276.529C627.651 278.976 625.51 281.117 623.063 281.117ZM904.465 278.364C902.018 278.364 899.877 276.223 899.877 273.776V270.718C899.877 268.271 902.018 266.13 904.465 266.13C906.912 266.13 909.053 268.271 909.053 270.718V273.776C909.053 276.223 906.912 278.364 904.465 278.364ZM342.271 265.212C339.825 265.212 337.683 263.071 337.683 260.624V257.566C337.683 255.119 339.825 252.978 342.271 252.978C344.718 252.978 346.86 255.119 346.86 257.566V260.624C346.86 263.071 344.718 265.212 342.271 265.212ZM623.063 259.707C620.616 259.707 618.474 257.566 618.474 255.119V252.06C618.474 249.613 620.616 247.472 623.063 247.472C625.51 247.472 627.651 249.613 627.651 252.06V255.119C627.651 257.566 625.815 259.707 623.063 259.707ZM904.465 256.954C902.018 256.954 899.877 254.813 899.877 252.366V249.308C899.877 246.861 902.018 244.72 904.465 244.72C906.912 244.72 909.053 246.861 909.053 249.308V252.366C909.053 254.813 906.912 256.954 904.465 256.954ZM342.271 243.802C339.825 243.802 337.683 241.661 337.683 239.214V236.156C337.683 233.709 339.825 231.568 342.271 231.568C344.718 231.568 346.86 233.709 346.86 236.156V239.214C346.86 241.661 344.718 243.802 342.271 243.802ZM623.368 238.297C620.921 238.297 618.78 236.156 618.78 233.709V230.65C618.78 228.203 620.921 226.062 623.368 226.062C625.815 226.062 627.957 228.203 627.957 230.65V233.709C627.957 236.156 625.815 238.297 623.368 238.297ZM904.465 235.544C902.018 235.544 899.877 233.403 899.877 230.956V227.898C899.877 225.451 902.018 223.31 904.465 223.31C906.912 223.31 909.053 225.451 909.053 227.898V230.956C909.053 233.403 906.912 235.544 904.465 235.544ZM342.271 222.086C339.825 222.086 337.683 219.945 337.683 217.498V214.44C337.683 211.993 339.825 209.852 342.271 209.852C344.718 209.852 346.86 211.993 346.86 214.44V217.498C346.86 220.251 344.718 222.086 342.271 222.086ZM623.368 216.887C620.921 216.887 618.78 214.746 618.78 212.299V209.24C618.78 206.793 620.921 204.652 623.368 204.652C625.815 204.652 627.957 206.793 627.957 209.24V212.299C627.957 214.746 626.121 216.887 623.368 216.887ZM904.465 214.134C902.018 214.134 899.877 211.993 899.877 209.546V206.487C899.877 204.041 902.018 201.9 904.465 201.9C906.912 201.9 909.053 204.041 909.053 206.487V209.546C909.053 211.993 906.912 214.134 904.465 214.134ZM342.271 200.676C339.825 200.676 337.683 198.535 337.683 196.088V193.03C337.683 190.583 339.825 188.442 342.271 188.442C344.718 188.442 346.86 190.583 346.86 193.03V196.088C346.86 198.841 344.718 200.676 342.271 200.676ZM623.674 195.477C621.227 195.477 619.086 193.336 619.086 190.889V187.83C619.086 185.383 621.227 183.242 623.674 183.242C626.121 183.242 628.262 185.383 628.262 187.83V190.889C628.262 193.336 626.121 195.477 623.674 195.477ZM904.465 192.724C902.018 192.724 899.877 190.583 899.877 188.136V185.077C899.877 182.631 902.018 180.49 904.465 180.49C906.912 180.49 909.053 182.631 909.053 185.077V188.136C909.053 190.583 906.912 192.724 904.465 192.724ZM341.966 179.266C339.519 179.266 337.378 177.125 337.378 174.678V171.62C337.378 169.173 339.519 167.032 341.966 167.032C344.413 167.032 346.554 169.173 346.554 171.62V174.678C346.554 177.431 344.718 179.266 341.966 179.266ZM623.674 174.066C621.227 174.066 619.086 171.925 619.086 169.479V166.42C619.086 163.973 621.227 161.832 623.674 161.832C626.121 161.832 628.262 163.973 628.262 166.42V169.479C628.262 171.925 626.121 174.066 623.674 174.066ZM904.465 171.314C902.018 171.314 899.877 169.173 899.877 166.726V163.667C899.877 161.22 902.018 159.079 904.465 159.079C906.912 159.079 909.053 161.22 909.053 163.667V166.726C909.053 169.173 906.912 171.314 904.465 171.314ZM341.966 157.856C339.519 157.856 337.378 155.715 337.378 153.268V150.21C337.378 147.763 339.519 145.622 341.966 145.622C344.413 145.622 346.554 147.763 346.554 150.21V153.268C346.554 155.715 344.718 157.856 341.966 157.856ZM342.577 136.446H342.271C339.825 136.14 337.989 133.999 337.989 131.552C337.989 130.635 338.295 129.411 338.295 128.494C338.601 126.047 340.742 124.212 343.495 124.517C345.942 124.823 347.777 126.964 347.471 129.717C347.471 130.635 347.165 131.552 347.165 132.776C347.165 134.611 345.024 136.446 342.577 136.446ZM622.451 131.246C620.31 131.246 618.169 129.717 617.863 127.27C617.863 126.353 617.557 125.435 617.557 124.212C617.251 121.765 618.78 119.318 621.533 119.012C623.98 118.706 626.427 120.235 626.733 122.988C627.039 123.906 627.039 125.129 627.039 126.047C627.345 128.494 625.51 130.941 623.063 131.246C623.063 131.246 622.757 131.246 622.451 131.246ZM346.248 115.342C345.942 115.342 345.636 115.342 345.024 115.342C342.577 114.73 341.048 112.283 341.66 109.836C341.966 108.919 342.271 107.695 342.577 106.778C343.189 104.331 345.636 102.802 348.083 103.719C350.53 104.331 352.059 106.778 351.142 109.225C350.836 110.142 350.53 111.06 350.53 111.977C350.224 114.118 348.389 115.342 346.248 115.342ZM618.169 110.142C616.333 110.142 614.498 108.919 613.886 106.778C613.581 105.86 613.275 104.943 612.969 104.025C612.051 101.578 613.581 99.1313 616.027 98.2137C618.474 97.2961 620.921 98.8254 621.839 101.272C622.145 102.19 622.451 103.413 622.757 104.331C623.368 106.778 622.145 109.225 619.698 110.142C619.086 110.142 618.474 110.142 618.169 110.142ZM353.283 95.1551C352.671 95.1551 352.059 95.1551 351.448 94.8492C349.001 93.9317 348.083 91.1789 349.001 88.7321C349.307 87.8145 349.918 86.8969 350.224 85.9794C351.142 83.5325 353.895 82.6149 356.342 83.5325C358.789 84.4501 359.706 87.2028 358.789 89.6497C358.483 90.5672 357.871 91.4848 357.565 92.4024C356.648 93.9317 354.812 95.1551 353.283 95.1551ZM610.522 90.2614C608.687 90.2614 607.157 89.3438 606.24 87.5087C605.934 86.5911 605.322 85.6735 605.016 84.7559C603.793 82.6149 604.71 79.8622 607.157 78.6388C609.298 77.4153 612.051 78.3329 613.275 80.7798C613.886 81.6973 614.192 82.6149 614.498 83.5325C615.722 85.9794 614.498 88.4262 612.357 89.6497C611.745 89.9555 611.133 90.2614 610.522 90.2614ZM363.071 76.1919C362.153 76.1919 361.541 75.886 360.624 75.5802C358.483 74.3568 357.871 71.2982 359.094 69.1572C359.706 68.2396 360.318 67.322 360.93 66.4044C362.459 64.2634 365.212 63.6517 367.353 65.181C369.494 66.7103 370.106 69.463 368.577 71.604C367.965 72.5216 367.659 73.1333 367.047 74.0509C366.13 75.2743 364.6 76.1919 363.071 76.1919ZM600.122 71.604C598.593 71.604 597.063 70.9923 596.452 69.463C595.84 68.5454 595.228 67.9337 594.922 67.0162C593.393 64.8752 594.005 62.1224 596.146 60.5931C598.287 59.0639 601.04 59.6756 602.569 61.8166C603.181 62.7341 603.793 63.6517 604.404 64.2634C605.934 66.4044 605.322 69.1572 603.181 70.6865C601.651 71.2982 601.04 71.604 600.122 71.604ZM375.612 58.758C374.694 58.758 373.47 58.4521 372.553 57.5346C370.718 56.0053 370.412 52.9467 371.941 51.1115C372.553 50.194 373.47 49.5822 374.082 48.6647C375.917 46.8295 378.67 46.5237 380.506 48.3588C382.341 50.194 382.647 52.9467 380.811 54.7818C380.2 55.3936 379.588 56.3111 378.976 56.9228C378.059 58.1463 376.835 58.758 375.612 58.758ZM586.664 54.7818C585.44 54.7818 584.217 54.1701 583.299 53.2525C582.687 52.6408 582.076 51.7233 581.158 51.1115C579.323 49.2764 579.323 46.5237 581.158 44.6885C582.993 42.8534 585.746 42.8534 587.581 44.6885C588.193 45.3002 589.111 46.2178 589.722 47.1354C591.558 48.9705 591.252 52.0291 589.417 53.5584C589.111 54.476 587.887 54.7818 586.664 54.7818ZM390.599 43.4651C389.376 43.4651 388.152 42.8534 387.235 41.9358C385.705 40.1006 385.705 37.0421 387.846 35.5128C388.764 34.9011 389.376 34.2893 390.293 33.3718C392.129 31.8425 395.187 32.1483 396.717 33.9835C398.246 35.8186 397.94 38.8772 396.105 40.4065C395.493 41.0182 394.576 41.6299 393.964 42.2417C392.74 43.1592 391.823 43.4651 390.599 43.4651ZM571.064 40.1006C570.147 40.1006 568.923 39.7948 568.311 39.1831C567.394 38.5714 566.782 37.9596 565.864 37.3479C563.723 35.8186 563.417 33.0659 564.947 30.9249C566.476 28.7839 569.229 28.478 571.37 30.0073C572.288 30.619 572.899 31.2308 573.817 31.8425C575.652 33.3718 576.264 36.4303 574.429 38.2655C573.817 39.4889 572.594 40.1006 571.064 40.1006ZM407.728 30.9249C406.199 30.9249 404.669 30.3132 403.752 28.7839C402.528 26.6429 403.14 23.8902 405.281 22.3609C406.199 21.7492 407.117 21.1374 408.034 20.8316C410.175 19.6082 412.928 20.2199 414.457 22.3609C415.681 24.5019 415.069 27.2546 412.928 28.7839C412.01 29.3956 411.399 29.7015 410.481 30.3132C409.563 30.619 408.646 30.9249 407.728 30.9249ZM553.629 28.1722C552.712 28.1722 552.1 27.8663 551.182 27.5605C550.265 26.9487 549.347 26.6429 548.736 26.0312C546.594 24.8077 545.677 22.055 546.9 19.914C548.124 17.773 550.877 16.8554 553.018 18.0789C553.935 18.6906 554.853 18.9964 555.771 19.6082C557.912 20.8316 558.829 23.5843 557.3 25.7253C556.688 27.2546 555.159 28.1722 553.629 28.1722ZM426.692 20.8316C424.857 20.8316 423.328 19.914 422.41 18.0789C421.492 15.632 422.41 13.1851 424.857 11.9617C425.775 11.6558 426.692 11.0441 427.61 10.7383C430.057 9.82069 432.504 11.0441 433.727 13.1851C434.645 15.632 433.422 18.0789 431.28 19.3023C430.363 19.6082 429.445 19.914 428.528 20.5257C427.916 20.5257 427.304 20.8316 426.692 20.8316ZM534.054 18.6906C533.442 18.6906 532.83 18.6906 532.524 18.3847C531.607 18.0789 530.689 17.773 529.771 17.4671C527.324 16.5496 526.101 14.1027 527.019 11.6558C527.936 9.20898 530.383 7.98555 532.83 8.90312C533.748 9.20898 534.665 9.51484 535.889 10.1266C538.336 11.0441 539.559 13.7968 538.642 15.9379C537.724 17.773 535.889 18.6906 534.054 18.6906ZM446.88 13.7968C444.739 13.7968 442.904 12.5734 442.598 10.4324C441.986 7.98555 443.515 5.53868 445.962 4.92697C446.88 4.62111 448.103 4.31525 449.021 4.0094C451.468 3.39768 453.915 4.92697 454.527 7.37383C455.138 9.82069 453.609 12.2676 451.162 12.8793C450.245 13.1851 449.327 13.491 448.409 13.491C447.798 13.7969 447.492 13.7968 446.88 13.7968ZM513.56 12.5734C513.254 12.5734 512.948 12.5734 512.643 12.5734C511.725 12.2676 510.807 12.2676 509.89 11.9617C507.443 11.35 505.913 8.90312 506.219 6.45626C506.831 4.00939 509.278 2.4801 511.725 2.78596C512.643 3.09182 513.866 3.09182 514.784 3.39768C517.231 4.00939 518.76 6.45626 518.148 8.90312C517.536 11.0441 515.701 12.5734 513.56 12.5734ZM467.985 9.82069C465.538 9.82069 463.703 7.98555 463.397 5.84454C463.091 3.39767 464.926 0.950814 467.373 0.950814C468.291 0.950814 469.514 0.644949 470.432 0.644949C472.879 0.339091 475.326 2.17424 475.326 4.92697C475.632 7.37383 473.797 9.82069 471.044 9.82069C470.126 9.82069 469.209 10.1266 467.985 10.1266C468.291 9.8207 468.291 9.82069 467.985 9.82069ZM492.455 9.51484H492.149C491.231 9.51484 490.314 9.51483 489.09 9.20897C486.643 9.20897 484.502 7.06797 484.808 4.31525C485.114 1.56253 486.949 -0.272628 489.702 0.0332305C490.62 0.0332305 491.843 0.0332375 492.761 0.339096C495.208 0.644954 497.349 2.78596 497.043 5.23282C497.043 7.67969 494.902 9.51484 492.455 9.51484Z" fill="#FFCB1F"/>
<path d="M904.466 148.986C902.019 148.986 899.877 146.845 899.877 144.398V142.869C899.877 140.422 902.019 138.281 904.466 138.281C906.913 138.281 909.054 140.422 909.054 142.869V144.398C909.054 147.151 906.913 148.986 904.466 148.986Z" fill="#FFCB1F"/>
<path d="M693.719 352.076H553.935L553.629 142.869H693.413L693.719 352.076Z" fill="#006838"/>
<path d="M138.56 142.869H0V351.464H138.56V142.869Z" fill="#1C75BC"/>
<path d="M205.547 771.407C244.062 771.407 275.285 740.186 275.285 701.672C275.285 663.158 244.062 631.936 205.547 631.936C167.031 631.936 135.808 663.158 135.808 701.672C135.808 740.186 167.031 771.407 205.547 771.407Z" fill="#EC008C"/>
<path d="M902.324 215.052C941.178 215.052 972.675 183.556 972.675 144.704C972.675 105.853 941.178 74.3569 902.324 74.3569C863.471 74.3569 831.974 105.853 831.974 144.704C831.974 183.556 863.471 215.052 902.324 215.052Z" fill="#F6871F"/>
<path d="M205.547 685.767L217.17 673.227L216.252 690.355L233.381 689.438L220.84 700.754L233.381 712.377L216.252 711.459L217.17 728.587L205.547 716.047L194.229 728.587L195.147 711.459L178.018 712.377L190.559 700.754L178.018 689.438L195.147 690.355L194.229 673.227L205.547 685.767Z" fill="#FFF200"/>
<path d="M902.324 129.106L913.948 116.26L913.03 133.388L930.159 132.47L917.618 144.093L930.159 155.715L913.03 154.798L913.948 171.926L902.324 159.08L891.007 171.926L891.925 154.798L874.796 155.715L887.337 144.093L874.796 132.47L891.925 133.388L891.007 116.26L902.324 129.106Z" fill="#FFF200"/>
</svg>
